<svg xmlns="http://www.w3.org/2000/svg" xmlns:xlink="http://www.w3.org/1999/xlink" width="24" height="24" viewBox="0 0 24 24">
    <defs>
        <path id="a" d="M0 .217h18.912v18.73H0z"/>
    </defs>
    <g fill="none" fill-rule="evenodd">
        <path d="M0 0h24v24H0z"/>
        <g transform="translate(2 2.836)">
            <mask id="b" fill="#fff">
                <use xlink:href="#a"/>
            </mask>
            <path fill="#FEFEFE" d="M3.645 4.905c1.44 1.514 1.618 1.569.49 1.569-1.127 0-2.54-.043-3.284-.05-.744-.005-.834.59-.834 2.55 0 1.962-.294 3.824 1.569 3.775 1.862-.049 2.128-.225 2.731-.014.603.21 2.073 2.122 3.053 3.054.981.931 2.305 3.333 2.256.98-.05-2.353-.053-3.949-.05-4.902.005-.953.443-.637.884-.097.44.538 2.303 2.253 2.745 2.793.44.54.832.98.196 1.325-.638.343-1.068.476-1.392.61-.323.132-.365.295-.337.857.028.563-.042 1.38.548 1.266.591-.111 1.759-.548 2.365-.999.605-.45.646-.395.816-.562.17-.167.294-.071.45.127.154.196 1.341 1.427 1.603 1.645.263.219.38.113.747-.21.366-.324.985-.718.576-1.183-.408-.463-4.306-4.235-4.925-4.924-.619-.69-8.891-8.893-8.891-8.893S2.174.838 1.809.471c-.365-.368-.354-.31-.733 0a6.52 6.52 0 0 0-.815.787c-.154.182.014.409.324.704s3.06 2.943 3.06 2.943" mask="url(#b)"/>
        </g>
        <path fill="#FEFEFE" d="M11.097 4.46c-.42.438-1.04 1.098-1.295 1.323-.253.226-.52.337-.112.732.408.394 1.177 1.19 1.533 1.534.357.343.31.126.337-.409.03-.533.03-2.377.03-2.898 0-.52-.19-.596-.493-.282M13.685 8.171c.004.543-.003.96-.002 1.643.002.684.044.754.432 1.121.388.368 1.173 1.183 1.661 1.662.488.48.499.388.541-.184.042-.571-.245-1.752-.757-2.578-.357-.576-1.878-2.158-1.875-1.664M13.683 3.647c-.02.744-.002.883 0 1.294.003.41.32.513.692.655.372.14 2.939 1.167 3.824 3.487.886 2.319.868 3.594.55 4.939-.32 1.345-.32 1.15-.072 1.435.248.282.796.798 1.044 1.062.249.263.442-.106.744-.921.302-.815.85-2.78.372-4.975-.478-2.196-1.487-4.338-3.79-5.932-2.3-1.592-3.348-1.61-3.364-1.044"/>
    </g>
</svg>
