<svg xmlns="http://www.w3.org/2000/svg" width="24" height="24" viewBox="0 0 24 24">
    <g fill="none" fill-rule="evenodd">
        <path d="M0 0h24v24H0z"/>
        <path fill="#48A9BB" d="M12.654 11.017C10.85 9.238 9.991 8.348 9.365 7.721c-.625-.626.093-1.345.164-1.416.072-.07.4-.843 1.621.38 1.222 1.222 3.457 3.404 4.333 4.332.544.782-.182 1.517-.496 1.83l-3.949 3.95c-.67.67-.93.845-1.329.447-.399-.4-1.208-.959-.282-1.658.927-.699 2.524-2.439 3.152-3.037.627-.599.778-.84.075-1.532"/>
    </g>
</svg>
