<svg xmlns="http://www.w3.org/2000/svg" width="24" height="24" viewBox="0 0 24 24">
    <g fill="none" fill-rule="evenodd">
        <path d="M0 0h24v24H0z"/>
        <path fill="#FFF" fill-rule="nonzero" d="M8.72 13.1c.52.6 1.654 1.73 3.402 3.389.6.569.897 1.422.46 1.87l-.344.351a.949.949 0 0 1-1.364 0C6 13 5.003 12.648 5.003 11.84c0-.807 3.517-3.93 5.635-6.365.415-.478 1.194-.66 1.6-.243l.344.353c.453.464.408.981 0 1.398L8.79 10.844h1.072l.165.002c1.145.004 2.626-.023 4.444-.08.536-.017 3.078-.017 4.059 0 .26 0 .47.216.47.482l-.078 1.447c0 .266-.29.482-.55.482-1.939-.071-5.156-.097-9.652-.077z"/>
    </g>
</svg>
