<svg xmlns="http://www.w3.org/2000/svg" width="322" height="337" viewBox="0 0 322 337">
    <g fill="none" fill-rule="evenodd">
        <path fill="#5738BC" d="M320.76 32.8l-2.78 1.93h2.75l-.1 5.82-1.26 3.43 1.22-.79-4.73 288.75-15.64-10.13-14.46 9.66-33.06-2.13-10.94-6.16-12.8-.87-5.65-3.42-16.41 2.4-23.11-2.36-10.35 1.83-5.3-2.41-11.06 1.49-16.01-.92-8.24 3.53-4.33 3.26s-2.54 2.95-7.85 1.21c-5.31-1.75-26.42 4.57-26.42 4.57l-8.55.53-3.25 2.61-8.54-.13-7.14 1.55s-8.15-2.46-13.49-2.55c-5.34-.08-10.38 3.5-10.38 3.5l-11.75-.19-6.73-2.43-5.37 2.24-6.35-3.76L0 330.57c.07-4.2.62-54.36.99-123.12l3.95-10.08-1.86-6.32s.96-2.27 1.86-4.13c.9-1.87-3.83-3.74-3.83-3.74.36-77.64.4-159.1-.76-180.08l320.87.46-.46 29.24z" opacity=".441"/>
        <path fill="#FEFEFE" d="M320.76 29.8l-2.78 1.93h2.75l-.1 5.82-1.26 3.43 1.22-.79-4.73 288.75-15.64-10.13-14.46 9.66-33.06-2.13-10.94-6.16-12.8-.87-5.65-3.42-16.41 2.4-23.11-2.36-10.35 1.83-5.3-2.41-11.06 1.49-16.01-.92-8.24 3.53-4.33 3.26s-2.54 2.95-7.85 1.21c-5.31-1.75-26.42 4.57-26.42 4.57l-8.55.53-3.25 2.61-8.54-.13-7.14 1.55s-8.15-2.46-13.49-2.55c-5.34-.08-10.38 3.5-10.38 3.5l-11.75-.19-6.73-2.43-5.37 2.24-6.35-3.76L0 327.57c.07-4.2.62-54.36.99-123.12l3.95-10.08-1.86-6.32s.96-2.27 1.86-4.13c.9-1.87-3.83-3.74-3.83-3.74.36-77.64.4-159.1-.76-180.08l320.87.46-.46 29.24z"/>
        <path fill="#E9E7E8" d="M212.61 104.05h-104v-85a1 1 0 1 0-2 0v85h-85a1 1 0 1 0 0 2h85v104h-85a1 1 0 1 0 0 2h85v85a1 1 0 1 0 2 0v-85h104v85a1 1 0 1 0 2 0v-85h85a1 1 0 1 0 0-2h-85v-104h85a1 1 0 1 0 0-2h-85v-85a1 1 0 1 0-2 0v85zm-104 106h104v-104h-104v104z"/>
    </g>
</svg>
