<svg xmlns="http://www.w3.org/2000/svg" width="328" height="46" viewBox="0 0 328 46">
    <g fill="none" fill-rule="evenodd">
        <rect width="328" height="46" fill="#81A23C" rx="8"/>
        <rect width="328" height="44" fill="#A2C659" rx="8"/>
        <path d="M296 10h24v24h-24z"/>
        <path fill="#81A23C" d="M308.654 21.017c-1.804-1.779-2.663-2.669-3.289-3.296-.625-.626.093-1.345.164-1.416.072-.07.4-.843 1.621.38 1.222 1.222 3.457 3.404 4.333 4.332.544.782-.182 1.517-.496 1.83l-3.949 3.95c-.67.67-.93.845-1.329.447-.399-.4-1.208-.959-.282-1.658.927-.699 2.524-2.439 3.152-3.037.627-.599.778-.84.075-1.532"/>
        <text fill="#FEFEFE" font-family="Nunito-Black, Nunito" font-size="15" font-weight="700">
            <tspan x="52" y="27">LEADERBOARD</tspan>
        </text>
        <g transform="translate(12 8)">
            <circle cx="14" cy="14" r="12.833" stroke="#FEFEFE" stroke-width="2.333"/>
            <path fill="#FEFEFE" d="M13.468 18.28l-2.12 1.115a1.143 1.143 0 0 1-1.659-1.205l.405-2.362c.064-.37-.06-.749-.328-1.011L8.05 13.144a1.143 1.143 0 0 1 .633-1.95l2.371-.344c.373-.054.694-.288.86-.625l1.061-2.148a1.143 1.143 0 0 1 2.05 0l1.06 2.148c.167.337.488.571.86.625l2.372.345a1.143 1.143 0 0 1 .633 1.95l-1.716 1.672c-.269.262-.392.64-.328 1.011l.405 2.362a1.143 1.143 0 0 1-1.658 1.205l-2.121-1.115a1.143 1.143 0 0 0-1.064 0z"/>
        </g>
    </g>
</svg>
