<svg xmlns="http://www.w3.org/2000/svg" xmlns:xlink="http://www.w3.org/1999/xlink" width="238" height="120" viewBox="0 0 238 120">
    <defs>
        <path id="a" d="M96.313.029v94.316H.821V.03z"/>
        <linearGradient id="c" x1="-1697.587%" x2="970.703%" y1="-1745.961%" y2="1042.529%">
            <stop offset="0%" stop-color="#427BFD"/>
            <stop offset="100%" stop-color="#6A48EC"/>
        </linearGradient>
    </defs>
    <g fill="none" fill-rule="evenodd">
        <path fill="#3B50B6" d="M162.966 107.116c-66.927-2.471-86.013-4.382-105.492 5.128-19.48 9.51-8.42 7.713 26.78 7.455 35.2-.257 82.759-5.649 103.503-4.109 20.744 1.542 31.149-11.905-5.82-10.534-36.965 1.374-18.971 2.06-18.971 2.06"/>
        <g transform="translate(116.337 18.353)">
            <mask id="b" fill="#fff">
                <use xlink:href="#a"/>
            </mask>
            <path fill="#B9DC70" d="M60.521 52.828l-.013.014c-.812 3.107-7.262 7.851-13.1 7.35-6.512-.556-10.519-5.035-11.485-8.986-1.425-5.802-.649-9.011 3.18-13.228 1.996-2.189 5.686-3.839 9.603-3.839 2.797 0 5.724.844 8.203 2.945 5.749 4.847 5.507 8.521 3.612 15.744m28.973-30.492v-.013c-2.504-3.789-5.85-7.577-10.238-11.288l-.012-.014C62.747-2.885 40.807-2.519 25.048 6.114a44.99 44.99 0 0 0-4.07 2.504c-2.645 1.824-5.062 3.913-7.16 6.229-12.109 13.29-15.555 27.197-11.18 45.08C5.448 71.378 13.13 81.144 23.357 87.31a49.053 49.053 0 0 0 21.24 6.898c1.17.087 2.353.137 3.523.137 20.134 0 40.765-13.956 45.331-31.31 2.416-9.225 6.537-24.88-3.957-40.699" mask="url(#b)"/>
        </g>
        <path fill="#A1C457" d="M143.895 98.271c-.71 2.576-1.912 4.438-4.395 7.229-10.026-6.187-17.714-15.007-20.47-26.498-4.288-17.944-.91-31.896 10.961-45.232 2.058-2.323 4.427-4.42 7.021-6.249 1.223 3.8 1.347 7.941.362 12.11-.535 2.297-1.42 4.595-2.644 6.844-2.282 4.19-4.988 8.358-7.532 11.996a176.015 176.015 0 0 1-3.504 4.847l2.918 2.816 6.41 6.214c4.875 4.684 11.548 11.112 11.584 20.67 0 1.515-.162 3.309-.71 5.253z"/>
        <path fill="#70CCDC" d="M136.399 91.595c.013 3.684-1.052 9.084-6.149 14.173-.14.111-.279.249-.43.424a26.233 26.233 0 0 1-1.84 1.617c-7.872 6.39-15.479 5.538-19.485 4.374-5.439-1.58-9.407-5.075-12.297-7.632-1.875-1.667-4.133-3.822-6.365-6l-.838 1.389c-4.347 7.192-9.748 16.152-21.12 17.968a21.02 21.02 0 0 1-3.423.277c-6.972 0-13.54-3.422-17.671-9.411-5.01-7.255-5.327-16.853-.789-24.446 3.019-5.036 6.746-10.087 10.041-14.534a329.92 329.92 0 0 0 1.625-2.207L45.106 55.735c-6.123-5.79-8.925-12.93-7.898-20.124.076-.564.177-1.114.317-1.654l.012-.025c.052-.288.113-.577.203-.85a20.682 20.682 0 0 1 2.523-5.602c.013-.014.013-.025.013-.025 2.18-3.372 5.363-6.215 9.33-8.27 14.314-7.405 24.507 3.119 28.88 7.644l.026.023c.647.665 1.306 1.354 1.99 2.018l2.815 2.707a121.74 121.74 0 0 0 1.8-3.132c3.195-5.665 8.013-14.235 18.876-16.127a21.99 21.99 0 0 1 7.52.012c5.679.977 10.953 4.085 14.313 8.721 4.982 6.892 5.185 15.988.532 24.36-3.45 6.176-7.846 12.266-11.22 16.713l9.483 8.96c4.957 4.648 11.727 11.027 11.778 20.511"/>
        <path fill="#FEFEFE" d="M63.446 58.76l41.836-6.827c.342 4.256-.122 7.81-1.085 10.775-5.074 15.642-26.378 18.592-36.235 5.35-3.441-4.625-4.516-9.298-4.516-9.298"/>
        <path fill="#3D9DAF" d="M67.664 50.063a1.85 1.85 0 0 1-2.169-1.135c-2.687-6.89-.153-10.746 2.833-11.953 3.691-1.508 8.98.578 11.397 6.65a1.89 1.89 0 0 1-1.028 2.45 1.85 1.85 0 0 1-2.416-1.042c-1.528-3.842-4.604-5.373-6.577-4.563-1.845.745-2.14 3.522-.757 7.074a1.888 1.888 0 0 1-1.283 2.52M88.713 45.528a1.895 1.895 0 0 1-1.555-1.951c.35-7.451 4.316-9.93 7.603-9.79 4.083.173 8.145 4.294 7.885 10.88a1.9 1.9 0 0 1-1.974 1.819c-1.046-.054-1.866-.922-1.825-1.969.167-4.17-2.075-6.865-4.249-6.944-2.033-.089-3.462 2.338-3.642 6.182a1.898 1.898 0 0 1-2.243 1.773"/>
        <path fill="#4CB648" d="M184.643 47.395l-.08-.001a1.896 1.896 0 0 1-1.822-1.969c.175-4.165-2.062-6.849-4.234-6.946-.037-.002-.074-.002-.11-.002-1.974 0-3.36 2.4-3.546 6.168-.05 1.042-.927 1.83-1.99 1.797a1.895 1.895 0 0 1-1.807-1.982c.364-7.442 4.3-9.96 7.625-9.76 4.08.183 8.137 4.304 7.862 10.883a1.897 1.897 0 0 1-1.898 1.812M157.195 44.672a1.904 1.904 0 0 1-1.878-2.127c.436-3.854-.577-6.498-2.584-6.74-2.142-.255-4.771 2.05-5.275 6.23a1.894 1.894 0 0 1-2.103 1.663 1.905 1.905 0 0 1-1.647-2.127c.797-6.599 5.454-10.053 9.47-9.558 3.247.388 6.738 3.495 5.89 10.967a1.896 1.896 0 0 1-1.873 1.692"/>
        <path fill="#53B8CA" d="M126.656 45.16c-3.457 6.192-7.864 12.297-11.245 16.756 0 0-6.29-2.675.496-12.738 6.213-9.22 15.158-28.31-4.13-37.178 5.692.98 10.978 4.094 14.345 8.742 4.994 6.909 5.197 16.026.534 24.418M128.192 107.597c-7.904 6.336-15.54 5.49-19.563 4.336-5.46-1.567-9.445-5.032-12.347-7.567-1.884-1.652-4.15-3.788-6.39-5.95 3.832-5.565 5.97-3.85 8.3-2.336 2.342 1.517 7 8.548 14.394 11.58 6.2 2.546 11.978 2.322 15.606-.063"/>
        <path fill="#FEFEFE" d="M38.056 32.996c.19-1.019.451-1.965.768-2.845l-.11.44-.802 3.19a7.6 7.6 0 0 1 .144-.785M78.3 27.261c-.585-.453-9.95-7.834-18.018-8.06-6.557-.176-15.554 1.951-20.282 8.69 2.187-3.388 5.376-6.246 9.354-8.313 14.346-7.44 24.563 3.137 28.947 7.683M205.705 41.042c-15.56-21.325-46.348-25.425-63.822-16.432l-.013-.064c15.61-8.787 37.341-9.158 53.68 4.995l.013.012c4.345 3.777 7.66 7.633 10.142 11.489"/>
        <g fill="url(#c)" opacity=".793">
            <path d="M5.466 47.695c1.715 1.08 1.28.807 2.032 1.279.752.474.8.355.115 2.056-.684 1.7-1.638 3.694-2.229 5.54-.59 1.849 1.11 3.657 2.735 3.017 1.624-.638 1.854-2.857 2.827-5.336l.737-1.882c.235-.599.171-.64.903-.163.734.479 3.023 2.06 4.382 2.855 1.36.797 2.632 1.51 3.812-.298 1.178-1.809-.777-2.893-2.346-3.881l-4.261-2.688c-.703-.443-.624-.636-.35-1.325.275-.687 1.688-3.475 2.431-6.076.744-2.598-1.41-3.531-2.749-2.982-1.34.548-1.489 2.115-2.101 3.946-.426 1.271-1.01 2.541-1.326 3.198a.451.451 0 0 1-.654.184L5.821 42.82c-1.462-.94-2.723-2.22-4.094-1.056-1.372 1.163-1.252 2.788.48 3.879l3.259 2.05M219.954 85.908l.517.603c.19.222.217.19-.177.65-.394.458-.906.981-1.286 1.496-.38.514-.025 1.246.56 1.212.584-.034.888-.7 1.456-1.372l.43-.51c.137-.162.121-.181.305.04.185.224.751.945 1.103 1.33.352.384.683.734 1.247.29.564-.442.053-.976-.346-1.44l-1.08-1.265c-.179-.209-.134-.261.025-.447.158-.186.898-.91 1.405-1.641.507-.732-.083-1.239-.568-1.204-.483.035-.694.507-1.08 1.013a9.58 9.58 0 0 1-.754.86.154.154 0 0 1-.228-.01l-.91-1.083c-.369-.44-.638-.963-1.197-.74-.559.223-.689.738-.25 1.253l.828.965M123.295 2.272l.517.603c.19.222.217.19-.177.649s-.906.982-1.286 1.496-.025 1.247.56 1.213c.584-.035.888-.7 1.456-1.373l.43-.51c.137-.161.121-.18.305.042.185.222.751.944 1.103 1.328.352.385.683.735 1.247.291.564-.442.053-.976-.346-1.441l-1.08-1.264c-.179-.21-.134-.261.025-.447.158-.186.898-.91 1.405-1.641.507-.732-.083-1.24-.568-1.204-.483.035-.694.506-1.08 1.013a9.58 9.58 0 0 1-.754.86.154.154 0 0 1-.228-.01l-.91-1.083c-.369-.44-.638-.964-1.197-.741-.559.223-.689.739-.25 1.254l.828.965M232.43 35.46c-.401 2.3-3.32 4.688-6.273 4.68-2.95-.01-5.314-1.872-6.083-4.19-.77-2.313-.638-4.229 1.018-6.393 1.722-2.25 5.714-3.48 8.842-1.231 3.129 2.248 2.902 4.833 2.497 7.134m.073-10.733c-5.252-3.772-11.947-1.711-14.835 2.065-2.778 3.631-2.995 6.844-1.708 10.73 1.292 3.888 5.257 7.011 10.21 7.023 4.949.013 9.847-3.992 10.525-7.852.674-3.856 1.057-8.19-4.192-11.966M32.326 105.457c-.201 1.15-1.66 2.344-3.138 2.34-1.476-.004-2.658-.935-3.043-2.094-.385-1.157-.32-2.115.509-3.197.862-1.125 2.858-1.74 4.423-.615 1.565 1.124 1.452 2.416 1.25 3.566m.036-5.366c-2.628-1.886-5.976-.856-7.421 1.032-1.39 1.816-1.498 3.423-.854 5.365.646 1.944 2.63 3.505 5.107 3.512 2.476.006 4.925-1.996 5.264-3.926.338-1.928.529-4.095-2.096-5.983"/>
        </g>
    </g>
</svg>
