<svg xmlns="http://www.w3.org/2000/svg" width="328" height="46" viewBox="0 0 328 46">
    <g fill="none" fill-rule="evenodd">
        <rect width="328" height="46" fill="#C99E25" rx="8"/>
        <rect width="328" height="44" fill="#F4BE28" rx="8"/>
        <text fill="#FEFEFE" font-family="Nunito-Black, Nunito" font-size="15" font-weight="700">
            <tspan x="52" y="27">START NEW GAME</tspan>
        </text>
        <g transform="translate(12 8)">
            <circle cx="14" cy="14" r="12.833" stroke="#FEFEFE" stroke-width="2.333"/>
            <path fill="#FEFEFE" d="M20.512 12.795c.325.325.488.727.488 1.205 0 .478-.163.885-.488 1.22a1.613 1.613 0 0 1-1.205.501h-3.614v3.586c0 .479-.158.88-.474 1.205-.315.325-.722.488-1.219.488-.478 0-.88-.163-1.205-.488a1.637 1.637 0 0 1-.488-1.205v-3.586H8.693c-.479 0-.88-.167-1.205-.502A1.685 1.685 0 0 1 7 14c0-.478.163-.88.488-1.205a1.637 1.637 0 0 1 1.205-.488h3.614V8.693c0-.479.163-.88.488-1.205A1.637 1.637 0 0 1 14 7c.478 0 .88.163 1.205.488.325.325.488.726.488 1.205v3.614h3.614c.479 0 .88.163 1.205.488z"/>
        </g>
    </g>
</svg>
