<svg xmlns="http://www.w3.org/2000/svg" width="328" height="60" viewBox="0 0 328 60">
    <g fill="none" fill-rule="evenodd">
        <rect width="328" height="58" y="2" fill="#825EF0" rx="8"/>
        <rect width="328" height="58" fill="#9E7EFF" rx="8"/>
        <path d="M296 17h24v24h-24z"/>
        <path fill="#825EF0" d="M308.654 28.017c-1.804-1.779-2.663-2.669-3.289-3.296-.625-.626.093-1.345.164-1.416.072-.07.4-.843 1.621.38 1.222 1.222 3.457 3.404 4.333 4.332.544.782-.182 1.517-.496 1.83l-3.949 3.95c-.67.67-.93.845-1.329.447-.399-.4-1.208-.959-.282-1.658.927-.699 2.524-2.439 3.152-3.037.627-.599.778-.84.075-1.532"/>
        <g>
            <g font-family="Nunito-Black, Nunito" font-weight="700">
                <text fill="#FEFEFE" font-size="15" transform="translate(52 12)">
                    <tspan x="0" y="15">ONGOING GAMES</tspan>
                </text>
                <text fill="#E2DAFE" font-size="10" transform="translate(52 12)">
                    <tspan x="0" y="30">2 CHALLENGES, YOUR TURN IN 4 GAMES</tspan>
                </text>
            </g>
            <g transform="translate(12 15)">
                <circle cx="14" cy="14" r="12.833" stroke="#FEFEFE" stroke-width="2.333"/>
                <path fill="#FFF" d="M12.664 8.443l6.599 4.399a1.392 1.392 0 0 1 0 2.316l-6.599 4.4a1.392 1.392 0 0 1-2.164-1.159V9.601a1.392 1.392 0 0 1 2.164-1.158z"/>
            </g>
        </g>
    </g>
</svg>
