<svg xmlns="http://www.w3.org/2000/svg" xmlns:xlink="http://www.w3.org/1999/xlink" width="312" height="281" viewBox="0 0 312 281">
    <defs>
        <path id="a" d="M96.313.029v94.316H.821V.03z"/>
    </defs>
    <g fill="none" fill-rule="evenodd">
        <rect width="312" height="281" fill="#FEFEFE" rx="8"/>
        <path fill="#D8D8D8" d="M193.966 130.116c-66.927-2.471-86.013-4.382-105.492 5.128-19.48 9.51-8.42 7.713 26.78 7.455 35.2-.257 82.759-5.649 103.503-4.109 20.744 1.542 31.149-11.905-5.82-10.534-36.965 1.374-18.971 2.06-18.971 2.06"/>
        <g transform="translate(147.337 41.353)">
            <mask id="b" fill="#fff">
                <use xlink:href="#a"/>
            </mask>
            <path fill="#B9DC70" d="M60.521 52.828l-.013.014c-.812 3.107-7.262 7.851-13.1 7.35-6.512-.556-10.519-5.035-11.485-8.986-1.425-5.802-.649-9.011 3.18-13.228 1.996-2.189 5.686-3.839 9.603-3.839 2.797 0 5.724.844 8.203 2.945 5.749 4.847 5.507 8.521 3.612 15.744m28.973-30.492v-.013c-2.504-3.789-5.85-7.577-10.238-11.288l-.012-.014C62.747-2.885 40.807-2.519 25.048 6.114a44.99 44.99 0 0 0-4.07 2.504c-2.645 1.824-5.062 3.913-7.16 6.229-12.109 13.29-15.555 27.197-11.18 45.08C5.448 71.378 13.13 81.144 23.357 87.31a49.053 49.053 0 0 0 21.24 6.898c1.17.087 2.353.137 3.523.137 20.134 0 40.765-13.956 45.331-31.31 2.416-9.225 6.537-24.88-3.957-40.699" mask="url(#b)"/>
            <path fill="#B9DC70" d="M21.698 46.71h42v22h-42z" mask="url(#b)" transform="rotate(10 42.698 57.71)"/>
        </g>
        <path fill="#A1C457" d="M174.895 121.271c-.71 2.576-1.912 4.438-4.395 7.229-10.026-6.187-17.714-15.007-20.47-26.498-4.288-17.944-.91-31.896 10.961-45.232 2.058-2.323 4.427-4.42 7.021-6.249 1.223 3.8 1.347 7.941.362 12.11-.535 2.297-1.42 4.595-2.644 6.844-2.282 4.19-4.988 8.358-7.532 11.996a176.015 176.015 0 0 1-3.504 4.847l2.918 2.816 6.41 6.214c4.875 4.684 11.548 11.112 11.584 20.67 0 1.515-.162 3.309-.71 5.253z"/>
        <path fill="#70CCDC" d="M167.399 114.595c.013 3.684-1.052 9.084-6.149 14.173-.14.111-.279.249-.43.424a26.233 26.233 0 0 1-1.84 1.617c-7.872 6.39-15.479 5.538-19.485 4.374-5.439-1.58-9.407-5.075-12.297-7.632-1.875-1.667-4.133-3.822-6.365-6l-.838 1.389c-4.347 7.192-9.748 16.152-21.12 17.968a21.02 21.02 0 0 1-3.423.277c-6.972 0-13.54-3.422-17.671-9.411-5.01-7.255-5.327-16.853-.789-24.446 3.019-5.036 6.746-10.087 10.041-14.534a329.92 329.92 0 0 0 1.625-2.207L76.106 78.735c-6.123-5.79-8.925-12.93-7.898-20.124.076-.564.177-1.114.317-1.654l.012-.025c.052-.288.113-.577.203-.85a20.682 20.682 0 0 1 2.523-5.602c.013-.014.013-.025.013-.025 2.18-3.372 5.363-6.215 9.33-8.27 14.314-7.405 24.507 3.119 28.88 7.644l.026.023c.647.665 1.306 1.354 1.99 2.018l2.815 2.707a121.74 121.74 0 0 0 1.8-3.132c3.195-5.665 8.013-14.235 18.876-16.127a21.99 21.99 0 0 1 7.52.012c5.679.977 10.953 4.085 14.313 8.721 4.982 6.892 5.185 15.988.532 24.36-3.45 6.176-7.846 12.266-11.22 16.713l9.483 8.96c4.957 4.648 11.727 11.027 11.778 20.511"/>
        <path fill="#FEFEFE" d="M98.005 100.072l41.347-9.342c-1.277-4.075-3.039-7.196-5.042-9.585-10.564-12.602-31.422-7.357-35.6 8.614-1.459 5.577-.705 10.313-.705 10.313"/>
        <path fill="#3D9DAF" d="M95.363 63.996a1.85 1.85 0 0 0-.931 2.263c2.37 7.005 6.79 8.33 9.853 7.335 3.797-1.217 6.508-6.215 4.456-12.42a1.89 1.89 0 0 0-2.362-1.215 1.85 1.85 0 0 0-1.18 2.35c1.298 3.926-.074 7.077-2.106 7.724-1.892.615-3.904-1.322-5.128-4.932a1.888 1.888 0 0 0-2.602-1.105M119.713 57.741c-.923.168-1.6.993-1.555 1.951.35 7.451 4.316 9.93 7.603 9.79 4.083-.173 8.145-4.295 7.885-10.88a1.9 1.9 0 0 0-1.974-1.819c-1.046.054-1.866.922-1.825 1.968.167 4.171-2.075 6.866-4.249 6.945-2.033.089-3.462-2.338-3.642-6.182a1.898 1.898 0 0 0-2.243-1.773"/>
        <path fill="#4CB648" d="M223.531 63.204a1.896 1.896 0 0 0-2.48 1.158c-1.33 3.95-4.38 5.654-6.443 4.966-.035-.01-.07-.024-.104-.037-1.842-.707-2.276-3.446-1.099-7.028.326-.992-.21-2.042-1.215-2.392a1.895 1.895 0 0 0-2.396 1.203c-2.328 7.078.445 10.84 3.62 11.844 3.875 1.292 9.14-1.102 11.24-7.342a1.897 1.897 0 0 0-1.123-2.372M194.643 56.67a1.904 1.904 0 0 0-2.365 1.569c-.575 3.836-2.239 6.128-4.24 5.843-2.135-.309-4.077-3.216-3.482-7.383.148-1.044-.564-2-1.601-2.152a1.905 1.905 0 0 0-2.141 1.63c-.939 6.58 2.665 11.12 6.672 11.682 3.238.465 7.414-1.632 8.528-9.069a1.896 1.896 0 0 0-1.371-2.12"/>
        <path fill="#53B8CA" d="M157.656 68.16c-3.457 6.192-7.864 12.297-11.245 16.756 0 0-6.29-2.675.496-12.738 6.213-9.22 15.158-28.31-4.13-37.178 5.692.98 10.978 4.094 14.345 8.742 4.994 6.909 5.197 16.026.534 24.418M159.192 130.597c-7.904 6.336-15.54 5.49-19.563 4.336-5.46-1.567-9.445-5.032-12.347-7.567-1.884-1.652-4.15-3.788-6.39-5.95 3.832-5.565 5.97-3.85 8.3-2.336 2.342 1.517 7 8.548 14.394 11.58 6.2 2.546 11.978 2.322 15.606-.063"/>
        <path fill="#FEFEFE" d="M69.056 55.996c.19-1.019.451-1.965.768-2.845l-.11.44-.802 3.19a7.6 7.6 0 0 1 .144-.785M109.3 50.261c-.585-.453-9.95-7.834-18.018-8.06-6.557-.176-15.554 1.951-20.282 8.69 2.187-3.388 5.376-6.246 9.354-8.313 14.346-7.44 24.563 3.137 28.947 7.683M236.705 64.042c-15.56-21.325-46.348-25.425-63.822-16.432l-.013-.064c15.61-8.787 37.341-9.158 53.68 4.995l.013.012c4.345 3.777 7.66 7.633 10.142 11.489"/>
        <text fill="#6D616D" font-family="Nunito-Black, Nunito" font-size="15" font-weight="700">
            <tspan x="24" y="183">ARE YOU SURE YOU WANT TO </tspan> <tspan x="24" y="203">RESIGN?</tspan>
        </text>
    </g>
</svg>
