<svg xmlns="http://www.w3.org/2000/svg" width="210" height="46" viewBox="0 0 210 46">
    <g fill="none" fill-rule="evenodd">
        <rect width="210" height="46" fill="#C99E25" rx="8"/>
        <rect width="210" height="44" fill="#F4BE28" rx="8"/>
        <path d="M144 10h24v24h-24z"/>
        <path fill="#C99E25" d="M156.654 21.017c-1.804-1.779-2.663-2.669-3.289-3.296-.625-.626.093-1.345.164-1.416.072-.07.4-.843 1.621.38 1.222 1.222 3.457 3.404 4.333 4.332.544.782-.182 1.517-.496 1.83l-3.949 3.95c-.67.67-.93.845-1.329.447-.399-.4-1.208-.959-.282-1.658.927-.699 2.524-2.439 3.152-3.037.627-.599.778-.84.075-1.532"/>
        <text fill="#FEFEFE" font-family="Nunito-Black, Nunito" font-size="15" font-weight="700">
            <tspan x="42" y="27">START GAME</tspan>
        </text>
    </g>
</svg>
