<svg xmlns="http://www.w3.org/2000/svg" width="328" height="46" viewBox="0 0 328 46">
    <g fill="none" fill-rule="evenodd">
        <rect width="328" height="46" fill="#48A9BB" rx="8"/>
        <rect width="328" height="44" fill="#70CCDC" rx="8"/>
        <path d="M296 10h24v24h-24z"/>
        <path fill="#48A9BB" d="M308.654 21.017c-1.804-1.779-2.663-2.669-3.289-3.296-.625-.626.093-1.345.164-1.416.072-.07.4-.843 1.621.38 1.222 1.222 3.457 3.404 4.333 4.332.544.782-.182 1.517-.496 1.83l-3.949 3.95c-.67.67-.93.845-1.329.447-.399-.4-1.208-.959-.282-1.658.927-.699 2.524-2.439 3.152-3.037.627-.599.778-.84.075-1.532"/>
        <text fill="#FEFEFE" font-family="Nunito-Black, Nunito" font-size="15" font-weight="700">
            <tspan x="52" y="27">MY STATS</tspan>
        </text>
        <g transform="translate(12 8)">
            <circle cx="14" cy="14" r="12.833" stroke="#FEFEFE" stroke-width="2.333"/>
            <path fill="#FEFEFE" d="M10.752 19.123v.483c0 .394-.132.725-.394.992-.263.268-.601.402-1.015.402a1.37 1.37 0 0 1-1.004-.402 1.34 1.34 0 0 1-.406-.992v-6.271c0-.394.136-.724.406-.992a1.37 1.37 0 0 1 1.004-.402c.398 0 .732.134 1.003.402.27.268.406.598.406.992v5.788zm8.381-2.47v2.953c0 .394-.131.725-.394.992-.263.268-.6.402-1.015.402a1.37 1.37 0 0 1-1.003-.402 1.34 1.34 0 0 1-.406-.992v-8.741c0-.394.135-.725.406-.993a1.37 1.37 0 0 1 1.003-.401c.398 0 .733.133 1.003.401.271.268.406.599.406.993v5.788zm-4.13 0v2.953c0 .394-.132.725-.395.992-.263.268-.601.402-1.015.402a1.37 1.37 0 0 1-1.003-.402 1.34 1.34 0 0 1-.406-.992V8.394c0-.394.135-.725.406-.992A1.37 1.37 0 0 1 13.593 7c.398 0 .732.134 1.003.402.27.267.406.598.406.992v8.259z"/>
        </g>
    </g>
</svg>
