<svg xmlns="http://www.w3.org/2000/svg" xmlns:xlink="http://www.w3.org/1999/xlink" width="24" height="24" viewBox="0 0 24 24">
    <defs>
        <path id="a" d="M0 15.875V.595h9.061v15.28z"/>
    </defs>
    <g fill="none" fill-rule="evenodd">
        <path d="M0 0h24v24H0z"/>
        <g transform="translate(2 3.445)">
            <mask id="b" fill="#fff">
                <use xlink:href="#a"/>
            </mask>
            <path fill="#FEFEFE" d="M2.003 5.336C.203 5.308 0 4.92 0 6.674c0 1.654.03 3.089 0 3.713-.031.624.53.843 1.654.843 1.123 0 2.246-.188 2.839.467.593.656 2.902 3.027 3.494 3.619.593.593 1.06 1.124 1.06-.686s-.062-10.015 0-11.95C9.112.747 8.956.09 8.177.997c-.78.904-2.66 2.694-3.41 3.536-.643.653-.828.927-1.795.833-.767.006-.968-.03-.968-.03" mask="url(#b)"/>
        </g>
        <path fill="#FEFEFE" d="M12.994 8.382c.039 1.672-.027 4.364 0 5.356.027.993.022 1.345.027 1.672.004.327.503.177.857-.204.353-.381 1.685-1.4 1.658-3.357-.027-1.958-.91-2.964-1.617-3.589-.707-.626-.939-.462-.925.122"/>
        <path fill="#FEFEFE" d="M13.567 3.063c-.685-.242-.499.27-.527.613-.029.343-.17 1.298.142 1.384.314.085 1.797.727 2.525 1.469.727.74 2.891 2.66 2.101 6.877-.978 3.839-4.404 4.892-4.404 4.892s-.439-.055-.417.49c.021.546.043.634.041 1.167-.003.533.112.545.451.433.34-.113 2.202-.51 4.047-2.43 1.844-1.917 2.665-4.671 2.5-6.24-.166-1.568-.393-4.21-2.714-6.53-2.05-1.983-3.745-2.125-3.745-2.125"/>
    </g>
</svg>
